<?xml version="1.0" encoding="utf-8"?>
<!-- Generator: Adobe Illustrator 23.0.0, SVG Export Plug-In . SVG Version: 6.00 Build 0)  -->
<svg version="1.1" id="Layer_1" xmlns="http://www.w3.org/2000/svg" xmlns:xlink="http://www.w3.org/1999/xlink" x="0px" y="0px"
	 viewBox="0 0 100 100" style="enable-background:new 0 0 100 100;" xml:space="preserve">
<style type="text/css">
	.st0{opacity:0.12;fill:#4D4D4D;}
	.st1{fill:#FAC63C;}
	.st2{fill:#E8AA21;}
	.st3{fill:#FBB03B;}
	.st4{fill:#DD9536;}
</style>
<g>
	<ellipse class="st0" cx="47.57" cy="81.37" rx="19.41" ry="5.04"/>
	<circle class="st1" cx="47.74" cy="45.64" r="29.61"/>
	<path class="st2" d="M17.96,46.66c0-16.35,13.26-29.6,29.61-29.6c11.78,0,21.96,6.88,26.72,16.85
		c-5.43-6.84-13.81-11.23-23.22-11.23c-16.35,0-29.6,13.26-29.6,29.61c0,4.57,1.04,8.91,2.89,12.77
		C20.36,60.01,17.96,53.62,17.96,46.66z"/>
	<path class="st3" d="M47.57,79c-17.8,0-32.29-14.48-32.29-32.29c0-17.8,14.48-32.29,32.29-32.29c17.8,0,32.29,14.48,32.29,32.29
		C79.85,64.52,65.37,79,47.57,79z M47.57,19.79c-14.85,0-26.92,12.08-26.92,26.92c0,14.85,12.08,26.92,26.92,26.92
		c14.85,0,26.92-12.08,26.92-26.92C74.49,31.87,62.41,19.79,47.57,19.79z"/>
	<path class="st4" d="M47.71,79v-5.36c14.85,0,26.92-12.08,26.92-26.92c0-14.85-12.08-26.92-26.92-26.92v-5.36
		C65.52,14.43,80,28.91,80,46.72C80,64.52,65.52,79,47.71,79z"/>
	<path class="st2" d="M59.18,56.77l1.24,4.03l-4.1-1.27c-2.55,1.89-5.71,3.02-9.13,3.02c-8.47,0-15.33-6.86-15.33-15.33
		s6.86-15.33,15.33-15.33s15.33,6.86,15.33,15.33C62.52,50.83,61.27,54.15,59.18,56.77z"/>
	<g>
		<polygon class="st1" points="35.38,40.52 42.19,40.52 47.3,47.52 52.36,40.52 58.71,40.52 47.3,56.94 		"/>
	</g>
</g>
</svg>
